Coordinates
version=1
nRows=14
nColumns=42
inDegrees=yes

Units are S.I. units (second, meters, Newtons, ...)
If the header above contains a line with 'inDegrees', this indicates whether rotational values are in degrees (yes) or radians (no).

endheader
time	pelvis_tilt	pelvis_list	pelvis_rotation	pelvis_tx	pelvis_ty	pelvis_tz	hip_flexion_r	hip_adduction_r	hip_rotation_r	knee_angle_r	knee_angle_r_beta	ankle_angle_r	subtalar_angle_r	mtp_angle_r	hip_flexion_l	hip_adduction_l	hip_rotation_l	knee_angle_l	knee_angle_l_beta	ankle_angle_l	subtalar_angle_l	mtp_angle_l	lumbar_extension	lumbar_bending	lumbar_rotation	sh_tx_r	sh_ty_r	sh_tz_r	sh_plane_elev_r	sh_elev_r	sh_axial_rot_r	elbow_flex_r	pro_sup_r	sh_tx_l	sh_ty_l	sh_tz_l	sh_plane_elev_l	sh_elev_l	sh_axial_rot_l	elbow_flex_l	pro_sup_l
      7.98305080	     -7.65788435	      0.22166784	     -1.03186520	      0.26690818	      0.93332627	     -0.06935675	      6.54602862	     -4.63062095	    -10.19580404	      0.69258119	      0.01208782	      0.01611248	     -8.60633807	     -7.49999987	      5.40831265	     -3.46919394	     -8.99267218	      1.42393924	      0.02485243	      6.72906994	      3.60664720	     -7.49999987	     -2.17385366	      6.88320507	     -2.36466031	     -0.02619067	     -0.01680741	     -0.00624536	      4.95517176	      8.14401988	      9.68493215	     34.30784457	     67.43739720	     -0.03521050	      0.03731757	     -0.00466002	    -18.00097928	     55.03906075	     35.91481458	     86.11982644	     71.74892199
      8.00000000	     -7.78605515	      0.21293610	     -1.03958945	      0.26702433	      0.93323235	     -0.06921534	      6.66374761	     -4.60132950	    -10.18659972	      0.71260393	      0.01243728	      0.17962260	     -8.46171910	     -7.49999987	      5.53182030	     -3.49625995	     -9.07790050	      1.40580588	      0.02453594	      6.73367906	      3.77376524	     -7.49999987	     -1.82944999	      6.85439521	     -2.99088069	     -0.02404739	     -0.01682687	     -0.00622905	      4.54859099	      8.06437100	     10.26580423	     33.83440290	     67.32845640	     -0.03460521	      0.03630962	     -0.00468481	    -19.20969594	     55.37281473	     36.60178155	     86.85593128	     71.73417281
      8.01694920	     -7.58578744	      0.17742084	     -1.04438424	      0.26682264	      0.93343081	     -0.06940586	      6.41790813	     -4.55460054	    -10.25886719	      0.69154902	      0.01206981	      0.17524722	     -8.69089708	     -7.49999987	      5.30090089	     -3.52745029	     -9.06152189	      1.36580447	      0.02383778	      6.78989108	      3.84505706	     -7.49999987	     -2.19930719	      6.88161547	     -3.17909615	     -0.02382488	     -0.01689655	     -0.00632492	      4.54952358	      8.13446332	     10.36661080	     34.49958756	     67.20422312	     -0.03546287	      0.03683787	     -0.00463609	    -19.46625235	     55.24601733	     36.48952871	     86.93880743	     71.64475085
      8.03389830	     -7.71390956	      0.12210501	     -1.07673991	      0.26624266	      0.93298588	     -0.06964292	      6.83436478	     -4.55254357	    -10.54467478	      1.21391092	      0.02118674	      0.52285538	     -8.61280389	     -7.49999987	      5.75046649	     -3.61684475	     -9.10238652	      1.93644877	      0.03379741	      7.07486586	      3.72495697	     -7.49999987	     -1.76079187	      7.11348540	     -3.41588487	     -0.02083648	     -0.01422889	     -0.00577938	      3.62913624	      8.09334155	     11.71256167	     34.48157371	     66.11409904	     -0.03043505	      0.03451626	     -0.00476687	    -20.52736873	     55.50163539	     37.20751741	     87.80514677	     70.65236948
      8.05084750	     -7.50195427	      0.12754463	     -1.08978064	      0.26666159	      0.93333655	     -0.06958858	      6.31329771	     -4.49143052	    -10.51711524	      0.68210472	      0.01190497	      0.15483033	     -9.02952581	     -7.49999987	      5.23390272	     -3.56031606	     -9.01713166	      1.37114054	      0.02393092	      6.76104688	      3.63480503	     -7.49999987	     -2.45665900	      6.88733914	     -3.29521075	     -0.02352567	     -0.01699867	     -0.00629897	      3.99568134	      8.08473632	     10.85089746	     35.20391668	     66.31371307	     -0.03597360	      0.03617778	     -0.00457801	    -19.38848192	     55.24653653	     36.36676276	     87.89582007	     70.83208408
      8.06779660	     -7.68600286	      0.12985263	     -1.10486388	      0.26684406	      0.93302616	     -0.06947313	      6.51365611	     -4.48573059	    -10.68670620	      0.69846508	      0.01219052	      0.21383459	     -9.05696944	     -7.49999987	      5.46269158	     -3.56564218	     -9.09910678	      1.42193752	      0.02481749	      6.87695396	      3.83913475	     -7.49999987	     -2.02584455	      6.84782132	     -3.42914994	     -0.02250705	     -0.01694066	     -0.00624790	      3.99198629	      7.94213389	     11.12076123	     34.67677521	     66.36161128	     -0.03482921	      0.03561751	     -0.00460092	    -19.38237770	     55.60984864	     37.07026513	     88.24282839	     70.99517416
      8.08474580	     -7.45797461	      0.10965877	     -1.11980597	      0.26651902	      0.93336362	     -0.06960268	      6.27517496	     -4.46533538	    -10.81784348	      0.68574145	      0.01196845	      0.17741150	     -9.21043547	     -7.49999987	      5.23193345	     -3.57539490	     -9.05046988	      1.41391491	      0.02467747	      6.89689671	      3.71789443	     -7.49999987	     -2.64681242	      6.85240494	     -2.93239095	     -0.02490912	     -0.01700244	     -0.00623370	      4.45191484	      8.05061202	     10.13210083	     35.11688504	     66.93951070	     -0.03625404	      0.03626011	     -0.00450647	    -18.21324774	     55.36439031	     36.31724594	     87.99679519	     71.58089306
      8.10169490	     -7.57276498	      0.08393207	     -1.22404488	      0.26594085	      0.93309552	     -0.06966758	      6.72044676	     -4.49404377	    -10.98980959	      1.21554593	      0.02121528	      0.50829652	     -9.12219211	     -7.49999987	      5.65275853	     -3.64894200	     -9.16203520	      1.97448159	      0.03446120	      7.18931700	      3.66464751	     -7.49999987	     -2.24709656	      7.05393593	     -3.03215568	     -0.02286239	     -0.01438394	     -0.00571514	      4.41728513	      7.94442470	     10.81953828	     34.47156488	     66.80616823	     -0.03104091	      0.03410696	     -0.00470516	    -19.06515970	     55.74267114	     37.27062761	     88.54443131	     71.56907950
      8.11864410	     -7.45118405	      0.09529744	     -1.24310594	      0.26651196	      0.93333147	     -0.06957111	      6.32615881	     -4.44037524	    -11.03489885	      0.69155926	      0.01206999	      0.28344456	     -9.21074881	     -7.49999987	      5.23232585	     -3.59994672	     -9.10325529	      1.42878543	      0.02493701	      6.95031417	      3.68434961	     -7.49999987	     -2.58826424	      6.97673778	     -3.52949120	     -0.02314399	     -0.01690329	     -0.00625456	      4.57133415	      7.89757267	     11.13264358	     34.89366146	     66.56479675	     -0.03619383	      0.03590040	     -0.00454522	    -19.06282744	     55.22016797	     37.21409265	     88.04753661	     71.36011222
      8.13559320	     -7.33248954	      0.09384998	     -1.35014680	      0.26655325	      0.93331256	     -0.06934916	      6.22695102	     -4.43775926	    -11.05098399	      0.69506642	      0.01213120	      0.17506431	     -9.39795687	     -7.49999987	      5.06132571	     -3.63268519	     -9.21500046	      1.43176097	      0.02498894	      6.97088506	      3.72309621	     -7.49999987	     -2.84539854	      6.95693370	     -2.73104377	     -0.02596304	     -0.01698724	     -0.00616047	      5.14203709	      7.84349201	     10.13998359	     34.41696037	     66.59312959	     -0.03617902	      0.03621563	     -0.00448992	    -17.79187174	     54.99056483	     36.67745735	     87.57724544	     71.50717166
      8.15254240	     -7.54258632	      0.09086373	     -1.60741809	      0.26583675	      0.93307114	     -0.06937009	      6.82080739	     -4.47673387	    -11.01623686	      1.25598803	      0.02192113	      0.35882560	     -9.43092913	     -7.49999987	      5.50096964	     -3.72402260	     -9.75070357	      1.94149560	      0.03388549	      7.28243121	      4.25633268	     -7.49999987	     -2.29969234	      7.15229544	     -2.60252771	     -0.02334578	     -0.01456887	     -0.00567673	      5.24417330	      7.93050436	     11.47516105	     33.70435107	     66.48237603	     -0.03115131	      0.03461255	     -0.00460468	    -18.80508836	     54.92025999	     37.15895671	     87.77416113	     71.46069392
      8.16949150	     -7.32270398	      0.10594301	     -1.50699700	      0.26652545	      0.93340195	     -0.06915958	      6.25471106	     -4.44458644	    -11.26610497	      0.70122404	      0.01223867	      0.17504307	     -9.41410627	     -7.49999987	      4.97827712	     -3.67502177	     -9.25649783	      1.44594916	      0.02523657	      7.01054197	      3.71754522	     -7.49999987	     -2.76754890	      7.00365467	     -2.95301140	     -0.02459686	     -0.01719737	     -0.00610994	      5.37746917	      7.80225442	     10.56388256	     34.30113312	     66.42611912	     -0.03607664	      0.03508252	     -0.00429490	    -18.54959389	     54.87590040	     36.81473050	     87.73084382	     71.60198754
      8.18644070	     -7.33505401	      0.12135699	     -1.57645420	      0.26643624	      0.93344458	     -0.06928456	      6.28009308	     -4.45866344	    -11.33802658	      0.70364705	      0.01228096	      0.20147681	     -9.45205757	     -7.49999987	      4.96115632	     -3.65427158	     -9.28979450	      1.41890134	      0.02476450	      7.06101108	      3.74699857	     -7.49999987	     -2.78543150	      7.02829952	     -3.06941232	     -0.02379494	     -0.01729434	     -0.00612761	      5.67284610	      7.87533207	     10.59457423	     34.21915310	     66.16724716	     -0.03620189	      0.03468159	     -0.00427355	    -18.91678158	     54.84940033	     36.91426062	     87.82270974	     71.38236387
      8.20338980	     -7.31223998	      0.12675599	     -1.62719866	      0.26656630	      0.93349071	     -0.06916133	      6.28901657	     -4.43863811	    -11.32036337	      0.69852699	      0.01219160	      0.23087976	     -9.43475950	     -7.49999987	      4.89749789	     -3.65744399	     -9.31976731	      1.38847758	      0.02423351	      7.03667839	      3.67122040	     -7.49999987	     -2.78119095	      6.99110087	     -3.08704380	     -0.02380161	     -0.01733109	     -0.00606460	      5.92831723	      7.90828804	     10.58849614	     34.23922546	     66.01453185	     -0.03593982	      0.03419449	     -0.00425438	    -19.14779059	     54.76965994	     36.89746243	     87.95743317	     71.30339576
